<svg version="1" xmlns="http://www.w3.org/2000/svg" width="933.333" height="933.333" viewBox="0 0 700.000000 700.000000"><path d="M348.5 86.8c-4.5 1.8-9 5-18.7 13.8-17 15.2-30.5 15.8-58.3 2.4-18.5-8.8-23.3-10.3-34-10.3-7.2 0-10.1.5-14.5 2.3-11 4.7-19.7 14.2-27 29.5-2.1 4.4-8.1 20.1-13.3 35-5.3 14.8-10.5 29.7-11.7 33-10.8 30.2-16.2 47.4-16.2 52.2 0 17.6 31.2 49.7 75 77.2 6.2 3.9 11.7 7.1 12.1 7.1.5 0 1.1.3 1.3.7.3.9 2.2 1.9 19.3 10.7 10.3 5.3 16.9 8.3 35 16.1 14.7 6.4 49.9 17.8 61.5 20.1 1.4.3 3.4.8 4.5 1.1 1.1.4 2.5.8 3 .9 9.4 2 26.9 5.4 30 5.9 2.2.3 6.7 1 10 1.5 9.3 1.4 20.2 2.5 36 3.5 10.9.8 43.2.8 47.5.1 1.9-.3 6.1-.8 9.2-1.1 5.4-.6 14.1-1.9 18.3-2.9 1.1-.2 4.1-.9 6.6-1.5 6.3-1.4 18.5-5.9 23.4-8.5 26.5-14.1 36.3-35.7 29.9-65.6-1.3-5.8-3.2-14.8-4.4-20-1.2-5.2-2.3-10.2-2.5-11.1-.2-.8-1-4.4-1.9-8-.8-3.5-2.9-12.5-4.6-19.9-1.7-7.4-3.8-16.2-4.5-19.5-3.6-15.1-5.4-23.3-5.8-25.5-1.8-9.5-6.7-25.9-9.5-32-6.2-13.6-21.2-25.4-51.2-40.4-32.1-16-80.4-35-112.2-44-14.9-4.2-26.3-5.2-32.3-2.8z"/><path d="M136.6 271.7c-.1.1-4.2.4-9.1.7-8.2.5-15 1.2-21.5 2.1-1.4.2-5 .7-8 1-3 .4-10.9 1.8-17.4 3.1-46.3 9.7-72.4 30.1-79.2 61.9-.3 1.6-.7 8.2-.9 14.5-.2 9.5.2 13.2 2.2 21 9.6 37.9 45.9 79.4 103.6 118.3 11.4 7.7 20.4 13.6 25.2 16.3 25.1 14.2 35.1 19.5 50.1 26.9 63.1 30.9 133.8 54.3 200.9 66.6 6.6 1.2 13 2.3 14.2 2.4 1.3.2 4.2.7 6.5 1.1 2.4.4 5.2.8 6.3.9 1.1.2 3.8.5 6 .9 2.2.3 8.5 1 14 1.6 5.5.6 11.4 1.3 13 1.5 17.6 2.4 80.4 2.4 95.7 0 1.2-.2 5-.6 8.3-1 3.2-.4 6.6-.8 7.5-1 .8-.1 3.6-.5 6.1-.9 32-4.6 63-15.9 86.3-31.4 28.3-18.8 46-45.5 52-78.5 1.3-7.4 1.5-30.4.3-35.2-.3-1.1-.8-3.4-1.2-5-6.9-29.9-31.3-62-64.7-85.3-12.4-8.6-37.2-22.7-43.6-24.7-2.7-.8-2.8-1.3.9 16.4 1.8 8.9 2 10.2 2.3 19 1.2 31.3-21.4 57.1-61.9 70.4-22.3 7.3-42.8 10.2-73.5 10.1-15.3 0-35.7-.9-44-1.9-11.6-1.5-19.4-2.6-29-4.1-3.5-.5-15.9-2.9-23.6-4.4-24.2-5-56.6-15.3-84.9-27-1.1-.5-9-4.2-17.5-8.3-63-30-109-71.3-119.6-107.2-3.1-10.7-1.8-28.4 3-39.5.5-1.1 0-1.5-2-1.5-1.4 0-2.7.1-2.8.2z"/></svg>