<svg xmlns="http://www.w3.org/2000/svg" width="400" height="400" viewBox="0 0 400 NaN"  fill-rule="evenodd" xmlns:v="https://vecta.io/nano"><path d="M200.267 200.267c-.147.146-.267 37.856-.267 83.8V367.6h1.4c.77 0 1.4-.18 1.4-.4s.45-.4 1-.4 1-.18 1-.4.255-.4.568-.4c.713 0 3.026-1.298 3.029-1.7.002-.165.363-.3.803-.3s.8-.18.8-.4.27-.4.6-.4.6-.18.6-.4.36-.4.8-.4.8-.18.8-.4.294-.4.654-.4 1.071-.45 1.581-1 1.205-1 1.546-1 .619-.18.619-.4.36-.4.8-.4.8-.18.8-.4.27-.4.6-.4.6-.18.6-.4.36-.4.8-.4.8-.267.8-.6.356-.6.8-.6.8-.18.8-.4.27-.4.6-.4.6-.18.6-.4.32-.4.712-.4.971-.36 1.288-.8.872-.8 1.232-.8.994-.45 1.407-1 1.034-1 1.381-1 1.016-.36 1.488-.8 1.059-.8 1.304-.8c.567 0 1.588-1.01 1.588-1.571 0-.236.41-.429.912-.429s1.171-.36 1.488-.8.815-.8 1.106-.8 1.014-.45 1.607-1 1.266-1 1.495-1 .675-.36.992-.8.807-.8 1.088-.8.512-.18.512-.4.283-.4.629-.4c.718 0 1.771-.934 1.771-1.571 0-.236.36-.429.8-.429s.8-.18.8-.4.204-.4.453-.4.756-.349 1.125-.775.931-.831 1.247-.9 1.148-.71 1.848-1.425 1.516-1.3 1.812-1.3.798-.36 1.115-.8.724-.8.905-.8c.351 0 .958-.462 2.496-1.9.529-.495 1.111-.9 1.293-.9s.589-.36.906-.8.742-.8.945-.8.857-.495 1.455-1.1c1.427-1.444 2.372-2.176 3.706-2.868.602-.312 1.094-.807 1.094-1.1s.198-.532.44-.532.943-.54 1.56-1.2 1.291-1.2 1.498-1.2 1.358-.945 2.557-2.1 2.891-2.638 3.762-3.295 2.105-1.692 2.742-2.3 1.313-1.105 1.5-1.105.341-.186.341-.413c0-.538 2.649-3.187 3.187-3.187.227 0 .413-.135.413-.3.001-.424 1.829-2.5 2.202-2.5.504 0 3.74-3.125 3.492-3.372-.125-.126.005-.228.29-.228.564 0 7.216-6.755 7.216-7.327 0-.385 1.667-2.017 3.338-3.268.584-.437 1.062-.924 1.062-1.082s1.17-1.48 2.6-2.938 2.6-2.83 2.6-3.047c0-.527 1.033-1.538 1.571-1.538.236 0 .429-.198.429-.44s.54-.943 1.2-1.56 1.2-1.32 1.2-1.563.81-1.24 1.8-2.216 1.8-2.055 1.8-2.398.18-.623.4-.623.4-.27.4-.6.189-.6.419-.6c.567 0 2.353-2.066 2.368-2.74.007-.296.553-1.043 1.213-1.66s1.2-1.276 1.2-1.465.45-.828 1-1.422 1-1.316 1-1.607.36-.789.8-1.106.8-.724.8-.905.184-.546.408-.812c1.886-2.234 2.391-2.952 2.392-3.401 0-.285.405-.952.9-1.481 1.623-1.735 1.9-2.158 1.9-2.896 0-.401.36-.988.8-1.305s.8-.897.8-1.288.18-.712.4-.712.4-.45.4-1 .193-1 .429-1c.637 0 1.571-1.053 1.571-1.771 0-.346.18-.629.4-.629s.4-.45.4-1 .18-1 .4-1 .4-.36.4-.8.18-.8.4-.8.4-.193.4-.429.225-.679.5-.986c1.244-1.387 1.5-1.791 1.5-2.368 0-.339.18-.617.4-.617s.4-.45.4-1 .18-1 .4-1 .4-.461.4-1.024.157-.926.349-.808.665-.636 1.052-1.676.861-2.063 1.052-2.272.347-.794.347-1.3.18-.92.4-.92.4-.36.4-.8.18-.8.4-.8.4-.373.4-.829.27-1.098.6-1.428.6-.947.6-1.372.16-.771.355-.771.465-.54.6-1.2l.49-2.396c.134-.658.404-1.097.6-.976s.355-.421.355-1.204.18-1.424.4-1.424.4-.518.4-1.151.27-1.375.6-1.649.6-1.005.6-1.625.18-1.239.4-1.375.4-.867.4-1.624.18-1.376.4-1.376.4-.795.4-1.767c0-1.038.206-1.85.5-1.969 2.367-.961-4.332-1.052-77.533-1.058-42.259-.003-76.954.114-77.1.261M104.8 298.954c0 .085.495.473 1.1.862l1.1.708-.762-.862c-.674-.763-1.438-1.139-1.438-.708" fill="#0c5394"/><path d="M238.868 199.9h77.6c21.413-.057 4.012-.104-38.668-.104l-38.932.104" fill="#0474cc"/><path d="M193.2 32.851c0 .192-1.584.349-3.52.349s-3.691.166-3.9.369-1.28.417-2.38.476-2.108.265-2.24.458-.841.396-1.576.452-1.407.314-1.494.574-.772.471-1.523.471-1.367.18-1.367.4-.392.4-.872.4c-1.121 0-3.58.86-4.24 1.483-.281.266-.776.381-1.1.257s-.588-.041-.588.185-.542.53-1.203.676-1.102.429-.977.632-.233.367-.796.367-1.024.18-1.024.4-.27.4-.6.4-.6.191-.6.424-.165.321-.368.196-.639.044-.971.376-.775.604-.983.604-.604.27-.878.6-.77.6-1.102.6-.925.37-1.317.822-1.089.851-1.547.885-.834.205-.834.378-.204.315-.454.315-.871.45-1.381 1-1.205 1-1.546 1-.619.18-.619.4a.41.41 0 0 1-.417.4c-.229 0-.803.36-1.275.8s-1.095.8-1.383.8-.525.18-.525.4-.276.4-.613.4-.716.27-.842.6-.481.6-.788.6-.557.18-.557.4-.332.4-.738.4-1.064.36-1.462.8-.96.8-1.249.8c-.309 0-.428.254-.289.616.13.339.079.569-.113.511-.483-.146-2.949 1-2.949 1.371 0 .166-.27.302-.6.302s-.6.146-.6.325-.63.573-1.4.875-1.4.786-1.4 1.075-.278.525-.617.525-1.003.36-1.475.8-1.185.8-1.583.8-.725.135-.726.3-.99.817-2.2 1.449-2.199 1.307-2.199 1.5-.36.351-.8.351-.8.18-.8.4-.235.4-.521.4c-.67 0-4.604 1.954-4.9 2.435-.125.201-.561.365-.969.365s-.803.178-.877.397-.615.436-1.204.484-.984.231-.877.404-.255.315-.805.315-1.102.166-1.228.369-.79.493-1.477.644c-.919.202-1.102.366-.695.624.374.237.068.353-.947.357-.825.003-1.5.186-1.5.406s-.54.4-1.2.4-1.2.18-1.2.4-.63.4-1.4.4-1.4.18-1.4.4-.372.4-.826.4-1.149.173-1.543.384-1.393.429-2.219.484-1.591.333-1.7.617-.772.515-1.475.515-1.448.17-1.657.378-1.225.42-2.258.473-1.787.243-1.677.423-.963.326-2.388.326-2.65.166-2.724.369-1.213.415-2.533.469-2.502.251-2.626.435-1.824.393-3.778.464c-2.247.082-3.609.301-3.707.596-.109.328-1.925.467-6.099.467-3.53 0-6.043.162-6.19.4s-2.68.4-6.25.4c-3.767 0-6.328.172-6.876.462-1.198.633-3.874 3.337-3.874 3.915 0 .258-.179.359-.398.224-.264-.163-.397 15.595-.394 46.545l.364 46.923c.197.072.409 1.661.472 3.531s.248 3.494.412 3.609.352 1.33.418 2.7c.075 1.555.294 2.491.584 2.491.257 0 .562.849.682 1.9.12 1.045.337 2.575.483 3.401l.265 1.501L199.8 199.8l.202-167.432-3.401.067c-1.871.037-3.401.224-3.401.416" fill="#34bcf4"/><path d="M199.901 116.1l-.101 83.7-155.2.405 77.7-.102 232.9-.507v-1.318c0-.725.169-1.489.375-1.698s.431-1.19.5-2.18.305-1.771.525-1.736.445-.935.5-2.156.272-2.87.482-3.664.418-2.755.461-4.358.232-3.009.418-3.124.339-20.819.339-46.009l-.4-45.553c-.22.136-.4.033-.4-.228s-1.022-1.442-2.272-2.623l-2.272-2.149-6.428-.047c-3.535-.026-6.563-.026-6.728 0s-.3-.115-.3-.314-2.556-.386-5.68-.417c-3.325-.034-5.893-.233-6.191-.481-.281-.233-1.937-.473-3.679-.534s-3.407-.257-3.699-.437c-.537-.332-.782-.364-3.875-.496-.948-.041-1.629-.226-1.514-.413s-.819-.372-2.076-.412-2.346-.248-2.419-.461-1.109-.388-2.3-.388-2.167-.18-2.167-.4-.698-.4-1.551-.4c-.886 0-1.763-.256-2.045-.596-.272-.327-.651-.499-.841-.381s-.733.007-1.204-.245a6.25 6.25 0 0 0-1.893-.573c-.57-.062-1.102-.314-1.184-.559s-.864-.446-1.739-.446c-.958 0-1.492-.159-1.343-.4s-.329-.4-1.176-.4c-.783 0-1.424-.18-1.424-.4s-.54-.4-1.2-.4-1.2-.158-1.2-.351c0-.323-1.938-1.301-2.683-1.355-.174-.012-1.109-.444-2.077-.958s-2.077-.936-2.466-.936-.771-.19-.848-.422-.407-.474-.733-.538c-1.247-.246-2.793-1.037-2.793-1.43 0-.226-.36-.41-.8-.41s-.801-.135-.803-.3c-.004-.348-1.932-1.3-2.634-1.3-.263 0-.581-.27-.708-.6s-.596-.6-1.042-.6-.813-.18-.813-.4-.27-.4-.6-.4-.6-.18-.6-.4-.236-.4-.525-.4-.911-.36-1.383-.8-1.136-.8-1.475-.8-.617-.18-.617-.4-.276-.4-.613-.4-.716-.27-.842-.6-.571-.6-.988-.6-.757-.18-.757-.4-.242-.4-.538-.4-.864-.36-1.262-.8-1.101-.803-1.562-.806c-.688-.005-.73-.076-.238-.394.513-.331.498-.389-.1-.394-.385-.003-1.067-.373-1.515-.821s-.988-.707-1.2-.576-.385.078-.385-.118-.444-.593-.986-.884-.889-.685-.771-.877.068-.324-.113-.293c-.954.166-1.73-.101-1.73-.594 0-.306-.405-.66-.9-.787s-1.387-.687-1.983-1.244-1.36-1.012-1.7-1.012-.617-.289-.617-.643c0-.391-.223-.557-.568-.425-.312.12-.963-.125-1.447-.545s-1.219-.871-1.633-1.002-.752-.395-.752-.586-.62-.572-1.379-.846-1.291-.64-1.183-.814-.263-.43-.822-.571-1.016-.415-1.016-.611-.265-.357-.588-.357-1.229-.36-2.012-.8-1.689-.8-2.012-.8-.588-.18-.588-.4-.45-.4-1-.4c-.587 0-1-.23-1-.556 0-.305-.225-.547-.5-.537-1.289.048-1.926-.142-1.7-.507.145-.234-.27-.4-1-.4s-1.145-.166-1-.4c.204-.33-.88-.523-2.055-.366-.141.019-.366-.143-.5-.359s-.785-.456-1.445-.533-1.317-.301-1.46-.5-.863-.404-1.6-.456-1.847-.297-2.466-.541-1.654-.445-2.3-.445-1.174-.156-1.174-.346-1.517-.379-3.372-.42-3.969-.245-4.698-.454-2.36-.38-3.626-.38h-2.302l-.101 83.7" fill="#0c84dc"/><path d="M122.5 200.3l-77.7.458c0 .196.252.453.56.571.389.15.501.65.367 1.643s-.022 1.493.369 1.643c.36.139.501.623.394 1.353-.092.625.03 1.259.272 1.408s.438.711.438 1.248.18.976.4.976.4.191.4.424-.225.292-.5.131-.161.095.254.568.788 1.179.828 1.568.175.979.297 1.309c.751 2.024 2.105 6.646 2.021 6.899-.055.165.17.301.5.301s.6.349.6.776.18.888.4 1.024.4.676.4 1.2.18 1.064.4 1.2.4.597.4 1.024.18.776.4.776.4.377.4.838.355 1.337.788 1.945.674 1.222.534 1.362-.045.255.211.255.467.281.467.624c0 .382.193.514.5.341.388-.219.394-.167.026.231s-.366.634 0 1.044c1.091 1.224 1.284 1.603 1.237 2.426-.034.581.13.796.498.655.356-.136.47-.007.325.37-.122.32.054.81.391 1.09s.516.669.395.864.061.355.404.355c.399 0 .624.361.624 1 0 .55.18 1 .4 1s.4.36.4.8.18.8.4.8.406.315.413.7.271 1.042.587 1.459.456.957.31 1.2.051.186.436-.127.644-.393.577-.179c-.173.546.958 3.347 1.352 3.347.179 0 .325.36.325.8 0 .458.267.8.624.8.343 0 .529.153.413.339s.151.727.592 1.2c.529.568.627.87.287.886-.284.014-.099.193.41.397s.813.553.676.775-.059.403.174.403.424.27.424.6.264.6.587.6c.358 0 .498.235.358.6-.127.33-.031.6.212.6s.443.39.443.867.105.761.233.633c.292-.292 1.824 1.207 1.923 1.881.04.275.415 1.021.833 1.659s.723 1.209.677 1.269.37.563.925 1.118 1.009 1.154 1.009 1.332.54.887 1.2 1.578 1.2 1.514 1.2 1.83.444.924.986 1.351.873.89.734 1.029.008.253.327.253c.697 0 2.053 2.153 1.642 2.608-.159.176-.065.191.209.034.313-.181.672.093.965.735.256.563.707 1.023 1.001 1.023s.536.251.536.557.27.661.6.788.605.461.611.742c.015.673 3.429 4.34 3.745 4.024.134-.135.244.016.244.334s.356.835.791 1.149c.503.362.634.667.36.836-.247.153.091.499.789.807.81.359 1.059.643.74.846-.333.211-.278.307.177.311.362.003.776.316.922.695.227.593.32.607.669.1.318-.463.356-.415.179.223-.149.538.045 1.008.574 1.389.439.316.799.806.799 1.087s.27.512.6.512.6.18.6.4.135.355.3.3.385.08.49.3c.29.612 1.326 1.842 2.155 2.557l1.252 1.124s.658.354.842.2.071.068-.252.494c-.535.706-.521.75.158.495.581-.218.689-.134.49.382-.209.546-.15.576.34.169.496-.412.566-.355.43.354-.09.467.007.741.216.612s.382.001.385.289c.005.386.105.368.38-.066.433-.686 1.305 1.068.89 1.79-.126.22.101.131.505-.197.682-.554.713-.529.431.361-.246.772-.183.911.321.717.455-.175.559-.064.379.405-.158.411-.088.546.192.373.243-.15.556-.086.696.141s.451.292.689.145.324-.09.189.128c-.297.482 2.658 3.458 3.047 3.068.151-.151.275.116.275.592s.135.846.3.82c.845-.134 1.317.096 1.058.515-.196.317-.069.383.397.205.411-.158.588-.104.44.135-.344.556.897 1.706 1.464 1.356.29-.18.357-.113.177.178-.17.274.251.916 1.022 1.562.721.603 1.665 1.501 2.098 1.996s1.036.9 1.34.9.452.16.331.356.273.678.876 1.071 1.574 1.223 2.157 1.844 1.269 1.129 1.524 1.129.352.18.216.4.029.4.366.4 1.389.776 2.337 1.724 2.033 1.843 2.41 1.987.687.45.687.676.281.413.624.413.512.18.376.4-.001.4.301.4.944.369 1.429.82 1.056.712 1.271.58c.221-.137.286.028.152.379-.153.397-.014.621.384.621a1.24 1.24 0 0 1 .943.512c.731 1.17 3.485 3.068 3.774 2.601.183-.296.392-.07.561.605.149.592.431.977.628.856s.357.07.357.426.181.535.403.398.511.033.643.377.501.625.82.625c.338 0 .461.194.296.462-.169.274-.111.353.144.196.236-.146.746.051 1.133.438s.8.646.917.574.317.167.444.53.404.691.616.73.335.218.274.4.051.23.248.108.765.131 1.262.562 1.088.669 1.313.53c.236-.146.289-.057.125.208-.171.277-.025.462.362.462s.533.185.362.462-.11.353.152.191c.446-.276 2.086 1.194 2.086 1.869 0 .204.371.274.824.156.504-.132.91.005 1.042.351.12.311.379.467.576.345s.358.059.358.402c0 .571.48.809 1.33.661.181-.031.228.108.103.309s.407.666 1.18 1.033c.889.422 1.3.843 1.12 1.144-.158.262.063.213.49-.11s.651-.436.496-.252c-.325.387.608 1.439 1.276 1.439.249 0 .341.18.205.4s.147.4.631.4 1.294.45 1.804 1 1.216 1 1.57 1 .55.15.437.332.416.577 1.176.875 1.382.689 1.382.868.251.325.557.325.665.281.797.625.409.521.616.394.49-.046.63.181.451.292.689.145c.26-.16.32-.082.149.193-.157.254-.071.462.191.462s.804.377 1.203.837.896.731 1.105.602.482.035.609.363.427.598.67.598.692.225.999.5c1.323 1.187 1.776 1.5 2.168 1.5.229 0 .417.201.417.447s.353.354.8.237c.52-.136.8-.012.8.353 0 .31.384.563.853.563s1.144.332 1.5.737c.79.9 2.434 1.852 3.247 1.88.33.011.547.26.483.553-.08.362.154.461.732.31.569-.148.786-.06.661.267-.104.269.14.514.541.544s1.097.423 1.546.872 1.271.931 1.827 1.07 1.01.414 1.01.61.675.36 1.5.363c1.116.005 1.346.106.9.394s-.216.389.898.394l1.498.006.204-167.501c0 .054-34.965.145-77.7.201" fill="#046cc9"/></svg>