<?xml version="1.0" encoding="UTF-8"?><svg xmlns="http://www.w3.org/2000/svg" xmlns:xlink="http://www.w3.org/1999/xlink" width="64px" height="64px" viewBox="0 0 64 64" version="1.1"><title>contrast</title><defs><path id="path-1" d="M.06 64V.04H64V64z"/></defs><g id="Page-1" stroke="none" stroke-width="1" fill="none" fill-rule="evenodd"><g id="contrast"><g id="Group-3"><mask id="mask-2" fill="#fff"><use xlink:href="#path-1"/></mask><path d="M64 32c0 17.673-14.327 32-32 32C14.327 64 0 49.673 0 32 0 14.327 14.327 0 32 0c17.673 0 32 14.327 32 32" id="Fill-1" fill="#4C5665" mask="url(#mask-2)"/></g><path d="M32 49c-9.374 0-17-7.626-17-17 0-9.374 7.626-17 17-17 9.374 0 17 7.626 17 17 0 9.374-7.626 17-17 17zm22.5-18.5h-2.576a19.911 19.911 0 0 0-.89-4.631l2.37-.965a1.501 1.501 0 0 0-1.132-2.779l-2.383.971a19.94 19.94 0 0 0-2.737-4.127l1.818-1.818a1.5 1.5 0 1 0-2.121-2.121l-1.818 1.818a19.988 19.988 0 0 0-3.911-2.633l.998-2.368a1.501 1.501 0 0 0-2.765-1.165l-.997 2.367a19.86 19.86 0 0 0-4.856-.973V9.5a1.5 1.5 0 1 0-3 0v2.576a19.911 19.911 0 0 0-4.631.89l-.965-2.37a1.5 1.5 0 1 0-2.779 1.132l.971 2.383a19.94 19.94 0 0 0-4.127 2.737l-1.818-1.818a1.5 1.5 0 1 0-2.121 2.121l1.818 1.818a19.988 19.988 0 0 0-2.633 3.911l-2.368-.998a1.501 1.501 0 0 0-1.165 2.765l2.367.997a19.86 19.86 0 0 0-.973 4.856H9.5a1.5 1.5 0 1 0 0 3h2.576c.119 1.603.415 3.155.89 4.631l-2.37.965a1.501 1.501 0 0 0 1.131 2.779l2.384-.971a19.966 19.966 0 0 0 2.737 4.127l-1.818 1.818a1.5 1.5 0 1 0 2.121 2.121l1.818-1.818a19.988 19.988 0 0 0 3.911 2.633l-.998 2.368a1.501 1.501 0 0 0 2.765 1.165l.997-2.367a19.86 19.86 0 0 0 4.856.973V54.5a1.5 1.5 0 1 0 3 0v-2.576a19.911 19.911 0 0 0 4.631-.89l.965 2.37a1.501 1.501 0 0 0 2.779-1.131l-.971-2.384a20.006 20.006 0 0 0 4.127-2.737l1.818 1.818a1.496 1.496 0 0 0 2.121 0 1.5 1.5 0 0 0 0-2.121l-1.818-1.818a19.988 19.988 0 0 0 2.633-3.911l2.368.998a1.499 1.499 0 0 0 1.965-.8 1.501 1.501 0 0 0-.8-1.965l-2.367-.997a19.86 19.86 0 0 0 .973-4.856H54.5a1.5 1.5 0 1 0 0-3z" id="Fill-4" fill="#FFFFFE"/><path d="M32 43c-6.065 0-11-4.935-11-11s4.935-11 11-11v22zm0-25c-7.732 0-14 6.268-14 14s6.268 14 14 14 14-6.268 14-14-6.268-14-14-14z" id="Fill-5" fill="#FFFFFE"/></g></g><metadata><rdf:RDF xmlns:rdf="http://www.w3.org/1999/02/22-rdf-syntax-ns#" xmlns:rdfs="http://www.w3.org/2000/01/rdf-schema#" xmlns:dc="http://purl.org/dc/elements/1.1/"><rdf:Description about="https://iconscout.com/legal#licenses" dc:title="contrast" dc:description="contrast" dc:publisher="Iconscout" dc:date="2017-09-25" dc:format="image/svg+xml" dc:language="en"><dc:creator><rdf:Bag><rdf:li>Elegant Themes</rdf:li></rdf:Bag></dc:creator></rdf:Description></rdf:RDF></metadata></svg>