<svg xmlns="http://www.w3.org/2000/svg" width="32" height="32" viewBox="0 0 32 32"><g transform="translate(0 -1020.362)"><circle cx="16" cy="1036.362" r="16" fill="#e64c65" fill-rule="evenodd"/><path fill="#cd244a" style="line-height:normal;text-indent:0;text-align:start;text-decoration-line:none;text-decoration-style:solid;text-decoration-color:#000;text-transform:none;block-progression:tb;isolation:auto;mix-blend-mode:normal" d="M 16.976562 31.964844 A 16 16 0 0 0 17.130859 31.958984 A 16 16 0 0 0 18.71875 31.767578 A 16 16 0 0 0 20.279297 31.416016 A 16 16 0 0 0 21.796875 30.912109 A 16 16 0 0 0 23.257812 30.259766 A 16 16 0 0 0 24.644531 29.462891 A 16 16 0 0 0 25.945312 28.533203 A 16 16 0 0 0 27.146484 27.478516 A 16 16 0 0 0 28.238281 26.306641 A 16 16 0 0 0 29.205078 25.035156 A 16 16 0 0 0 30.041016 23.669922 A 16 16 0 0 0 30.736328 22.230469 A 16 16 0 0 0 31.285156 20.728516 A 16 16 0 0 0 31.681641 19.177734 A 16 16 0 0 0 31.919922 17.597656 A 16 16 0 0 0 31.949219 17.009766 L 23.464844 8.5253906 C 23.427023 8.4875717 23.384085 8.4552158 23.345703 8.4179688 C 23.256553 8.3314626 23.160472 8.2532823 23.068359 8.1699219 C 22.841604 7.9646714 22.609052 7.767329 22.365234 7.5820312 C 22.239584 7.4865359 22.112346 7.3946284 21.982422 7.3046875 C 21.743964 7.1395957 21.498113 6.9873531 21.246094 6.8417969 C 21.11959 6.7687218 20.996904 6.6909958 20.867188 6.6230469 C 20.50668 6.4342177 20.135269 6.2625021 19.751953 6.1152344 C 19.730092 6.1068356 19.70943 6.0961492 19.6875 6.0878906 C 19.6875 6.0878906 19.685547 6.0878906 19.685547 6.0878906 C 19.657051 6.1343499 19.619285 6.1738288 19.576172 6.2070312 L 19.322266 6.3964844 L 18.695312 5.7695312 C 17.825692 5.5375314 16.915449 5.4023438 15.974609 5.4023438 C 14.868189 5.4023438 13.804464 5.573625 12.802734 5.890625 L 16.248047 9.3359375 L 16.263672 9.7246094 L 15.347656 8.8085938 L 11.888672 6.3183594 C 11.875203 6.3086318 11.863826 6.2964227 11.851562 6.2851562 C 11.841624 6.2760046 11.831273 6.2680685 11.822266 6.2578125 C 10.054436 7.0191125 8.5421744 8.2547281 7.4277344 9.7988281 L 7.4199219 9.8203125 L 7.4453125 9.9101562 L 8.3925781 12.296875 L 6.8242188 10.728516 C 5.9254888 12.290816 5.4023438 14.095838 5.4023438 16.023438 C 5.4023438 16.120437 5.4154687 16.214147 5.4179688 16.310547 L 6.0410156 16.933594 L 5.5253906 17.361328 C 5.5163906 17.371328 5.5073469 17.375812 5.4980469 17.382812 C 5.6919069 18.895012 6.2016306 20.307028 6.9628906 21.548828 L 7.8398438 22.425781 L 7.5683594 22.421875 C 7.8457418 22.78611 8.1495932 23.128516 8.4707031 23.453125 C 8.484015 23.46658 8.4944292 23.48271 8.5078125 23.496094 L 8.5644531 23.552734 L 16.976562 31.964844 z " color="#000" font-family="sans-serif" font-weight="400" transform="translate(0 1020.362)" white-space="normal"/><path fill="#fff" style="line-height:normal;text-indent:0;text-align:start;text-decoration-line:none;text-decoration-style:solid;text-decoration-color:#000;text-transform:none;block-progression:tb;isolation:auto;mix-blend-mode:normal" d="m 15.9752,1025.764 c -1.10642,0 -2.17132,0.1727 -3.17305,0.4897 l 2.92093,2.1068 2.97233,-2.2288 c -0.86962,-0.232 -1.77937,-0.3677 -2.72021,-0.3677 z m 3.70938,0.684 c -0.0286,0.047 -0.0657,0.087 -0.1092,0.1205 l -3.35129,2.5146 0.14613,3.6966 3.29829,2.3428 3.01408,-1.1593 1.48536,-4.0499 c 0.0152,-0.032 0.0171,-0.041 0.0639,-0.1723 -1.18492,-1.4702 -2.75071,-2.6173 -4.54737,-3.293 z m -7.86197,0.1719 c -1.76783,0.7613 -3.28052,1.9967 -4.39496,3.5408 l -0.007,0.022 0.0246,0.089 1.50784,3.7977 0.001,0 3.38663,0.9972 3.15217,-2.2706 -0.14452,-3.6243 -3.45888,-2.4906 c -0.0245,-0.018 -0.0472,-0.038 -0.0674,-0.061 z m 13.03101,3.9727 -1.27982,3.4894 2.97875,2.3926 0.0418,-0.029 c 1.2e-4,-0.02 0.003,-0.039 0.003,-0.059 -5e-5,-0.027 -0.003,-0.054 -0.008,-0.08 l 0,-10e-4 c -0.0165,-2.1052 -0.65656,-4.0635 -1.73585,-5.7118 z m -18.02984,0.4978 c -0.89873,1.5623 -1.42113,3.3683 -1.42113,5.2959 0,0.097 0.0119,0.191 0.0144,0.2874 l 2.72824,-2.2657 z m 9.11929,2.4633 -3.06866,2.2128 1.17383,3.6098 3.78968,0.045 1.21718,-3.6548 z m 7.08637,1.2156 -3.11524,1.1979 -1.28463,3.8571 1.29427,2.4071 4.27622,0.4079 c 0.0907,0.01 0.17661,0.045 0.24569,0.1043 1.12161,-1.4768 1.87147,-3.2491 2.08661,-5.1868 -0.13267,-0.077 -0.18449,-0.1312 -0.27528,-0.1958 z m -14.17112,0.1878 -3.33202,2.7668 c -0.009,0.01 -0.018,0.014 -0.0273,0.021 0.19386,1.5122 0.70223,2.924 1.46349,4.1658 l 0.18405,-0.01 4.25375,0.051 1.82418,-2.269 -1.23646,-3.8057 z m 5.03737,5.2943 -1.82579,2.269 1.28464,3.9503 c 0.0162,0.05 0.0233,0.103 0.0208,0.1557 0.83334,0.2108 1.70039,0.334 2.59978,0.334 0.53984,0 1.06782,-0.052 1.58653,-0.13 -0.0123,-0.08 -0.002,-0.1616 0.0289,-0.2361 l 1.62024,-3.8314 -1.32156,-2.4633 z m -6.32682,2.5324 c 1.22038,1.6025 2.88408,2.8418 4.81416,3.5391 l -1.13528,-3.4942 z m 12.44328,0.3388 -1.48696,3.5183 c 2.06349,-0.5087 3.88835,-1.6169 5.28146,-3.1329 l -0.005,-0.024 -3.78967,-0.3613 z" color="#000" font-family="sans-serif" font-weight="400" overflow="visible" white-space="normal"/></g></svg>