<?xml version="1.0" encoding="UTF-8" standalone="no"?><svg xmlns="http://www.w3.org/2000/svg" xmlns:xlink="http://www.w3.org/1999/xlink" width="48px" height="47px" viewBox="0 0 48 47" version="1.1"><title>Github-black</title><g id="Icons" stroke="none" stroke-width="1" fill="none" fill-rule="evenodd"><g id="Black" transform="translate(-700.000000, -560.000000)" fill="#000"><path d="M723.999 560C710.745 560 700 570.787 700 584.097c0 10.644 6.876 19.675 16.414 22.861 1.2.222 1.639-.522 1.639-1.16 0-.573-.021-2.088-.034-4.098-6.676 1.456-8.085-3.23-8.085-3.23-1.09-2.784-2.663-3.525-2.663-3.525-2.18-1.495.165-1.465.165-1.465 2.407.17 3.674 2.483 3.674 2.483 2.143 3.683 5.618 2.62 6.986 2.002.217-1.557.838-2.619 1.524-3.221-5.33-.609-10.932-2.675-10.932-11.908 0-2.63.934-4.781 2.47-6.466-.247-.61-1.07-3.059.235-6.377 0 0 2.015-.647 6.6 2.47 1.915-.534 3.967-.801 6.008-.811 2.039.01 4.092.277 6.01.811 4.58-3.117 6.592-2.47 6.592-2.47 1.31 3.318.486 5.767.239 6.377 1.538 1.685 2.467 3.835 2.467 6.466 0 9.256-5.611 11.293-10.957 11.89.86.744 1.629 2.213 1.629 4.462 0 3.22-.03 5.819-.03 6.61 0 .644.432 1.394 1.65 1.157C741.13 603.763 748 594.738 748 584.097c0-13.31-10.746-24.097-24.001-24.097" id="Github"/></g></g><metadata><rdf:RDF xmlns:rdf="http://www.w3.org/1999/02/22-rdf-syntax-ns#" xmlns:rdfs="http://www.w3.org/2000/01/rdf-schema#" xmlns:dc="http://purl.org/dc/elements/1.1/"><rdf:Description about="https://iconscout.com/legal#licenses" dc:title="github,black" dc:description="github,black" dc:publisher="Iconscout" dc:date="2017-09-14" dc:format="image/svg+xml" dc:language="en"><dc:creator><rdf:Bag><rdf:li>Alexis Doreau</rdf:li></rdf:Bag></dc:creator></rdf:Description></rdf:RDF></metadata></svg>