<svg xmlns="http://www.w3.org/2000/svg" role="img" width="24" height="24"><rect id="backgroundrect" width="100%" height="100%" x="0" y="0" fill="none" stroke="none"/><title>Google Cloud icon</title><g class="currentLayer" style=""><title>Layer 1</title><path d="M12.271632651388645,2.38 a9.344,9.344 0 0 0 -9.234,6.893 c0.05300000000000001,-0.020000000000000004 -0.05500000000000001,0.013000000000000003 0,0 c-3.875,2.551 -3.922,8.11 -0.24700000000000003,10.941 l0.006000000000000002,-0.007000000000000002 l-0.007000000000000002,0.030000000000000006 a6.7170000000000005,6.7170000000000005 0 0 0 4.077,1.356 h5.173 l0.030000000000000006,0.030000000000000006 h5.192 c6.687,0.05300000000000001 9.376,-8.605 3.835,-12.35 a9.365,9.365 0 0 0 -2.821,-4.552 l-0.04300000000000001,0.04300000000000001 l0.006000000000000002,-0.05000000000000001 A9.344,9.344 0 0 0 12.271632651388645,2.38 zm-0.35800000000000004,4.146 c1.244,-0.04000000000000001 2.518,0.36800000000000005 3.486,1.15 a5.186,5.186 0 0 1 1.862,4.078 v0.518 c3.5300000000000002,-0.07 3.5300000000000002,5.2620000000000005 0,5.193 h-5.193 l-0.008000000000000002,0.009000000000000003 v-0.04000000000000001 H6.866632651388645 a2.59,2.59 0 0 1 -1.067,-0.23 h0.0010000000000000002 a2.597,2.597 0 1 1 3.4370000000000003,-3.4370000000000003 l3.013,-3.012 A6.747,6.747 0 0 0 8.191632651388645,8.24 c0.018000000000000002,-0.010000000000000002 0.04000000000000001,-0.026000000000000006 0.05400000000000001,-0.023000000000000007 a5.186,5.186 0 0 1 3.67,-1.6900000000000002 z" id="svg_1" class="selected" fill="#e84141" fill-opacity="1"/></g></svg>