<?xml version="1.0"?>
<svg xmlns="http://www.w3.org/2000/svg" height="48" viewBox="0 0 48 48" width="48"><path d="M0 0h48v48h-48z" fill="none"/><path d="M40 26h-32c-1.1 0-2 .9-2 2v12c0 1.1.9 2 2 2h32c1.1 0 2-.9 2-2v-12c0-1.1-.9-2-2-2zm-26 12c-2.21 0-4-1.79-4-4s1.79-4 4-4 4 1.79 4 4-1.79 4-4 4zm26-32h-32c-1.1 0-2 .9-2 2v12c0 1.1.9 2 2 2h32c1.1 0 2-.9 2-2v-12c0-1.1-.9-2-2-2zm-26 12c-2.21 0-4-1.79-4-4s1.79-4 4-4 4 1.79 4 4-1.79 4-4 4z"/>
	
	
	<metadata>
		<rdf:RDF xmlns:rdf="http://www.w3.org/1999/02/22-rdf-syntax-ns#" xmlns:rdfs="http://www.w3.org/2000/01/rdf-schema#" xmlns:dc="http://purl.org/dc/elements/1.1/">
			<rdf:Description about="https://iconscout.com/legal#licenses" dc:title="Dns, Lock, Button, Toggle, Switch" dc:description="Dns, Lock, Button, Toggle, Switch" dc:publisher="Iconscout" dc:date="2016-12-14" dc:format="image/svg+xml" dc:language="en">
				<dc:creator>
					<rdf:Bag>
						<rdf:li>Google Inc.</rdf:li>
					</rdf:Bag>
				</dc:creator>
			</rdf:Description>
		</rdf:RDF>
    </metadata></svg>
