<svg xmlns="http://www.w3.org/2000/svg" width="36" height="36" viewBox="0 0 36 36"><g fill="#fff" transform="translate(2 -1017.362)"><circle cx="16" cy="1035.362" r="18" fill="#1d67b1"/><path fill="#154082" style="line-height:normal;text-indent:0;text-align:start;text-decoration-line:none;text-decoration-style:solid;text-decoration-color:#000;text-transform:none;block-progression:tb;isolation:auto;mix-blend-mode:normal" d="M 19.796875 35.892578 A 17.999994 17.999994 0 0 0 21.058594 35.738281 A 17.999994 17.999994 0 0 0 22.814453 35.34375 A 17.999994 17.999994 0 0 0 24.521484 34.777344 A 17.999994 17.999994 0 0 0 26.164062 34.041016 A 17.999994 17.999994 0 0 0 27.724609 33.146484 A 17.999994 17.999994 0 0 0 29.189453 32.099609 A 17.999994 17.999994 0 0 0 30.541016 30.912109 A 17.999994 17.999994 0 0 0 31.767578 29.595703 A 17.999994 17.999994 0 0 0 32.855469 28.164062 A 17.999994 17.999994 0 0 0 33.796875 26.628906 A 17.999994 17.999994 0 0 0 34.578125 25.009766 A 17.999994 17.999994 0 0 0 35.195312 23.320312 A 17.999994 17.999994 0 0 0 35.640625 21.576172 A 17.999994 17.999994 0 0 0 35.697266 21.195312 L 27.597656 13.095703 A 0.50005006 0.50005006 0 0 0 27.101562 12.597656 L 18.001953 12.585938 L 18.001953 12.587891 L 8.9941406 12.609375 A 0.50005 0.50005 0 0 0 8.9921875 12.609375 A 0.50005 0.50005 0 0 0 8.8945312 12.599609 A 0.50005 0.50005 0 0 0 8.4023438 13.107422 L 8.4023438 13.109375 L 8.4023438 24.496094 L 8.4023438 24.498047 A 0.50005 0.50005 0 0 0 8.9003906 24.996094 L 8.9023438 24.996094 L 8.9023438 24.998047 L 19.796875 35.892578 z " color="#000" font-family="sans-serif" font-weight="400" transform="translate(-2 1017.362)" white-space="normal"/><path style="line-height:normal;text-indent:0;text-align:start;text-decoration-line:none;text-decoration-style:solid;text-decoration-color:#000;text-transform:none;block-progression:tb;isolation:auto;mix-blend-mode:normal" d="m 16.599609,11 -9.0078121,0.02148 a 0.50005,0.50005 0 0 0 -0.00195,0 0.50005,0.50005 0 0 0 -0.097656,-0.0078 A 0.50005,0.50005 0 0 0 7,11.521484 l 0,11.388672 a 0.50005,0.50005 0 0 0 0.5,0.5 l 18.191406,0 a 0.50005,0.50005 0 0 0 0.5,-0.5 l 0,-11.324218 A 0.50005006,0.50005006 0 0 0 25.699219,11.011719 L 16.599609,11 Z m 0,1 0.002,0 7.359376,0.0098 -7.361329,4.605468 L 9.2402344,12.019531 16.599609,12 Z m 8.591797,0.417969 0,9.992187 -17.191406,0 0,-9.988281 8.335938,5.207031 a 0.50005006,0.50005006 0 0 0 0.529296,0 l 8.326172,-5.210937 z" color="#000" font-family="sans-serif" font-weight="400" overflow="visible" transform="translate(-.598 1018.952)" white-space="normal"/></g></svg>