<svg xmlns="http://www.w3.org/2000/svg" version="1.0" width="256.000000" height="256.000000" preserveAspectRatio="xMidYMid meet"><rect id="backgroundrect" width="100%" height="100%" x="0" y="0" fill="none" stroke="none"/>


<g class="currentLayer" style=""><title>Layer 1</title><g transform="translate(0,256) scale(0.10000000149011612,-0.10000000149011612) " fill="#1aebeb" stroke="none" id="svg_1" class="" fill-opacity="1">
<path d="M1045 2550 c-737 -60 -981 -312 -1035 -1070 -29 -398 27 -799 143 -1025 62 -121 182 -237 307 -298 174 -86 402 -131 711 -143 374 -15 724 41 934 149 111 57 235 181 292 292 108 210 164 560 149 934 -12 309 -57 537 -143 711 -61 125 -177 245 -298 307 -123 63 -290 108 -495 133 -122 15 -437 20 -565 10z m517 -231 c212 -23 416 -97 521 -189 96 -85 176 -254 213 -455 27 -143 28 -646 1 -780 -77 -390 -230 -548 -607 -627 -122 -25 -523 -36 -687 -19 -262 27 -469 110 -573 229 -92 104 -166 308 -189 520 -14 132 -14 442 0 574 25 233 102 431 208 537 99 99 275 174 471 200 47 6 96 13 110 15 61 8 439 5 532 -5z" id="svg_2" fill="#1aebeb" fill-opacity="1"/>
<path d="M1047 1865 c-142 -27 -239 -90 -285 -186 -42 -87 -54 -156 -59 -349 -10 -350 46 -510 206 -589 112 -56 285 -77 498 -61 296 23 414 110 439 327 l7 53 -181 0 -180 0 -6 -34 c-14 -76 -103 -114 -239 -103 -129 11 -169 57 -175 204 l-4 93 391 0 391 0 0 93 c0 324 -88 483 -303 544 -77 22 -398 27 -500 8z m358 -249 c47 -20 66 -55 73 -131 l5 -65 -208 0 -208 0 5 63 c6 73 28 114 73 133 42 18 216 18 260 0z" id="svg_3" fill="#1aebeb" fill-opacity="1"/>
</g></g></svg>