<?xml version="1.0" encoding="UTF-8" standalone="no"?>
<svg xmlns="http://www.w3.org/2000/svg" viewBox="450 50 300 300"><path fill="#9adaf6" d="M600 350c-82.7 0-150-67.3-150-150S517.3 50 600 50s150 67.3 150 150-67.3 150-150 150m0-260c-60.7 0-110 49.3-110 110s49.3 110 110 110 110-49.3 110-110S660.7 90 600 90"/><path fill="#1c9fe7" d="M600 320c-66.2 0-120-53.8-120-120S533.8 80 600 80s120 53.8 120 120-53.8 120-120 120m0-215c-52.4 0-95 42.6-95 95s42.6 95 95 95 95-42.6 95-95-42.6-95-95-95"/>
	<metadata>
		<rdf:RDF xmlns:rdf="http://www.w3.org/1999/02/22-rdf-syntax-ns#" xmlns:rdfs="http://www.w3.org/2000/01/rdf-schema#" xmlns:dc="http://purl.org/dc/elements/1.1/">
			<rdf:Description about="https://iconscout.com/legal#licenses" dc:title="cortana-microsoft" dc:description="cortana-microsoft" dc:publisher="Iconscout" dc:date="2017-06-17" dc:format="image/svg+xml" dc:language="en">
				<dc:creator>
					<rdf:Bag>
						<rdf:li>Icon Mafia</rdf:li>
					</rdf:Bag>
				</dc:creator>
			</rdf:Description>
		</rdf:RDF>
    </metadata></svg>
