<?xml version="1.0" standalone="no"?>
<!DOCTYPE svg PUBLIC "-//W3C//DTD SVG 20010904//EN"
 "http://www.w3.org/TR/2001/REC-SVG-20010904/DTD/svg10.dtd">
<svg version="1.0" xmlns="http://www.w3.org/2000/svg"
 width="700.000000pt" height="700.000000pt" viewBox="0 0 700.000000 700.000000"
 preserveAspectRatio="xMidYMid meet">
<metadata>
Created by potrace 1.14, written by Peter Selinger 2001-2017
</metadata>
<g transform="translate(0.000000,700.000000) scale(0.100000,-0.100000)"
fill="#000000" stroke="none">
<path d="M3995 6031 c-45 -20 -95 -72 -113 -117 -22 -54 -1182 -4714 -1182
-4746 0 -122 99 -218 224 -218 76 0 158 56 190 128 23 53 1186 4715 1186 4754
0 60 -21 109 -63 152 -66 65 -162 84 -242 47z"/>
<path d="M1945 4860 c-57 -28 -1249 -1222 -1270 -1272 -21 -52 -19 -133 5
-182 28 -58 1221 -1250 1272 -1271 50 -20 134 -19 184 4 72 33 124 118 124
202 -1 81 -20 103 -558 642 l-517 517 517 518 c538 538 557 560 558 641 0 84
-52 169 -124 202 -55 25 -140 25 -191 -1z"/>
<path d="M4864 4861 c-72 -33 -124 -118 -124 -202 1 -81 20 -103 558 -641
l517 -518 -517 -517 c-538 -539 -557 -561 -558 -642 0 -84 52 -169 124 -202
50 -23 134 -24 184 -4 51 21 1244 1213 1272 1271 26 53 26 135 0 188 -28 58
-1221 1250 -1272 1271 -50 20 -134 19 -184 -4z"/>
</g>
</svg>
