<svg xmlns="http://www.w3.org/2000/svg" id="Layer_1" width="32" height="32" version="1" viewBox="0 0 32 32"><g id="g2994" transform="translate(-9.9 9.9)"><path id="path7" fill="#e64c65" fill-rule="evenodd" d="m 41.899998,6.099999 c 0,8.794702 -7.205298,15.999999 -15.999999,15.999999 -8.794702,0 -15.9999995,-7.099337 -15.9999995,-15.999999 0,-8.7947016 7.2052975,-15.9999993 15.9999995,-15.9999993 8.794701,0 15.999999,7.2052977 15.999999,15.9999993 l 0,0 z" clip-rule="evenodd"/><path id="path9" fill="#fff" d="m 25.958479,0.31052519 c -2.807017,0 -5.146199,2.22222211 -5.263158,5.02923961 -0.467836,-0.2339181 -0.818714,-0.4678363 -1.28655,-0.4678363 -1.988304,0 -3.508772,1.6374269 -3.508772,3.5087718 0,1.9883047 1.637427,3.5087727 3.508772,3.5087727 h 12.046784 c 2.456139,0 4.444444,-2.1052638 4.444444,-4.6783633 0,-2.5730993 -2.105263,-4.6783624 -4.678363,-4.6783624 -0.350876,0 -0.701754,0.1169591 -0.935672,0.1169591 -0.935673,-1.2865497 -2.45614,-2.33918121 -4.327485,-2.33918121 l 0,0 z M 25.72456,3.9362561 c 0.11696,0 0.233919,0 0.350878,0 0.233918,0 0.467836,0 0.701755,0.116959 0.350876,0.1169591 0.467836,0.3508772 0.467836,0.7017544 -0.11696,0.3508772 -0.467836,0.4678362 -0.701755,0.4678362 -0.350878,-0.116959 -0.584795,-0.116959 -0.935672,0 -0.701755,0.2339181 -1.169592,0.8187134 -1.28655,1.4035087 l 0.116958,-0.116959 c 0.233919,-0.2339181 0.584797,-0.2339181 0.818714,0 0.233919,0.2339181 0.233919,0.5847953 0,0.8187134 l -1.16959,1.1695906 c -0.233919,0.2339181 -0.584796,0.2339181 -0.818713,0 L 22.098829,7.3280688 c -0.350877,-0.3508772 -0.116958,-1.0526315 0.350878,-1.0526315 0.116959,0 0.350877,0.116959 0.467836,0.2339181 l 0.233919,0.116959 c 0.116959,-1.1695906 0.935672,-2.2222221 2.222221,-2.5730993 0.11696,-0.116959 0.233919,-0.116959 0.350877,-0.116959 l 0,0 z m 2.5731,1.0526315 c 0.116959,0 0.350877,0 0.467836,0.1169591 l 1.169591,1.1695906 c 0.233918,0.2339181 0.233918,0.5847953 0,0.8187134 -0.233918,0.2339181 -0.584796,0.2339181 -0.818713,0 L 28.999415,6.9771916 c -0.11696,1.1695906 -0.935674,2.2222223 -2.222222,2.5730994 -0.467837,0.1169591 -1.052633,0.1169591 -1.520469,0 -0.350877,-0.116959 -0.467836,-0.4678362 -0.467836,-0.7017543 0.116959,-0.3508773 0.467836,-0.4678364 0.701755,-0.3508773 0.350877,0.1169592 0.584795,0.1169592 0.935672,0 0.701754,-0.2339181 1.16959,-0.8187134 1.28655,-1.4035087 l -0.11696,0.116959 c -0.233917,0.2339182 -0.584795,0.2339182 -0.818712,0 -0.233919,-0.2339181 -0.233919,-0.5847953 0,-0.8187134 l 1.16959,-1.1695906 c 0.116958,-0.116959 0.116958,-0.116959 0.350877,-0.2339181 0,0 0,0 0,0 l 0,0 z"/></g></svg>