<?xml version="1.0" encoding="iso-8859-1"?>
<!-- Generator: Adobe Illustrator 18.0.0, SVG Export Plug-In . SVG Version: 6.00 Build 0)  -->
<!DOCTYPE svg PUBLIC "-//W3C//DTD SVG 1.1//EN" "http://www.w3.org/Graphics/SVG/1.1/DTD/svg11.dtd">
<svg version="1.1" id="Capa_1" xmlns="http://www.w3.org/2000/svg" xmlns:xlink="http://www.w3.org/1999/xlink" x="0px" y="0px"
	 viewBox="0 0 328.249 328.249" style="enable-background:new 0 0 328.249 328.249;" xml:space="preserve">
<g>
	<path d="M156.597,30.896h-22.698c-3.105,0-5.621,2.517-5.621,5.621v18.334l-22.02,0c-11.256,0-21.51,6.471-26.354,16.631
		L5.598,227.327c-1.382,2.899-0.196,6.372,2.672,7.819l1.086,0.548l-8.672,16.439c-1.523,2.886-0.417,6.461,2.469,7.983
		l12.543,6.618c2.886,1.523,6.461,0.417,7.983-2.469l8.893-16.857l1.324,0.668c1.406,0.709,3.036,0.828,4.53,0.33
		c1.494-0.498,2.727-1.571,3.426-2.982l52.901-106.745l-0.031,23.847c-6.034,3.443-10.11,9.925-10.11,17.369
		c0,6.58,3.192,12.4,8.097,16.045c-8.977,2.181-15.651,10.251-15.651,19.899c0,9.033,5.849,16.684,13.96,19.416
		c-3.932,3.652-6.406,8.851-6.406,14.64c0,7.388,4.017,13.824,9.975,17.287l-0.031,24.257c-0.002,1.568,0.62,3.073,1.728,4.183
		c1.108,1.11,2.612,1.733,4.181,1.733h56.131V30.896z"/>
	<path d="M327.566,252.132l-8.678-16.449l1.065-0.538c2.868-1.447,4.055-4.919,2.672-7.819L248.32,71.483
		c-4.844-10.16-15.098-16.631-26.354-16.631l-22.021,0V36.517c0-3.104-2.517-5.621-5.621-5.621h-22.727v266.457h56.253
		c1.569,0,3.073-0.624,4.182-1.734c1.108-1.11,1.73-2.616,1.727-4.184l-0.038-24.308c5.91-3.475,9.888-9.883,9.888-17.234
		c0-5.789-2.475-10.988-6.406-14.64c8.111-2.732,13.96-10.383,13.96-19.416c0-9.648-6.674-17.718-15.651-19.899
		c4.905-3.645,8.097-9.465,8.097-16.045c0-7.42-4.05-13.881-10.051-17.333l-0.037-23.777l52.848,106.64
		c0.699,1.411,1.932,2.484,3.426,2.982c1.494,0.498,3.124,0.379,4.53-0.33l1.344-0.678l8.899,16.868
		c1.523,2.887,5.097,3.992,7.983,2.469l12.543-6.618C327.983,258.593,329.088,255.018,327.566,252.132z"/>
</g>
<g>
</g>
<g>
</g>
<g>
</g>
<g>
</g>
<g>
</g>
<g>
</g>
<g>
</g>
<g>
</g>
<g>
</g>
<g>
</g>
<g>
</g>
<g>
</g>
<g>
</g>
<g>
</g>
<g>
</g>
</svg>
