<svg xmlns="http://www.w3.org/2000/svg" version="1.0" width="256" height="256" preserveAspectRatio="xMidYMid meet"><rect id="backgroundrect" width="100%" height="100%" x="0" y="0" fill="none" stroke="none"/>


<g class="currentLayer" style=""><title>Layer 1</title><g transform="translate(0,256) scale(0.10000000149011612,-0.10000000149011612) " fill="#e84141" stroke="none" id="svg_1" class="selected" fill-opacity="1">
<path d="M1045,2555.7803468704224 c-737,-60 -981,-312 -1035,-1070 c-29,-398 27,-799 143,-1025 c62,-121 182,-237 307,-298 c174,-86 402,-131 711,-143 c374,-15 724,41 934,149 c111,57 235,181 292,292 c108,210 164,560 149,934 c-12,309 -57,537 -143,711 c-61,125 -177,245 -298,307 c-123,63 -290,108 -495,133 c-122,15 -437,20 -565,10 zm517,-231 c212,-23 416,-97 521,-189 c96,-85 176,-254 213,-455 c27,-143 28,-646 1,-780 c-77,-390 -230,-548 -607,-627 c-122,-25 -523,-36 -687,-19 c-262,27 -469,110 -573,229 c-92,104 -166,308 -189,520 c-14,132 -14,442 0,574 c25,233 102,431 208,537 c99,99 275,174 471,200 c47,6 96,13 110,15 c61,8 439,5 532,-5 z" id="svg_2" fill="#e84141" fill-opacity="1"/>
<path d="M1047,1870.7803468704224 c-142,-27 -239,-90 -285,-186 c-42,-87 -54,-156 -59,-349 c-10,-350 46,-510 206,-589 c112,-56 285,-77 498,-61 c296,23 414,110 439,327 l7,53 l-181,0 l-180,0 l-6,-34 c-14,-76 -103,-114 -239,-103 c-129,11 -169,57 -175,204 l-4,93 l391,0 l391,0 l0,93 c0,324 -88,483 -303,544 c-77,22 -398,27 -500,8 zm358,-249 c47,-20 66,-55 73,-131 l5,-65 l-208,0 l-208,0 l5,63 c6,73 28,114 73,133 c42,18 216,18 260,0 z" id="svg_3" fill="#e84141" fill-opacity="1"/>
</g></g></svg>